<?xml version="1.0" standalone="no"?>
<!DOCTYPE svg PUBLIC "-//W3C//DTD SVG 20010904//EN"
 "http://www.w3.org/TR/2001/REC-SVG-20010904/DTD/svg10.dtd">
<svg version="1.0" xmlns="http://www.w3.org/2000/svg"
 width="224.000000pt" height="171.000000pt" viewBox="0 0 224.000000 171.000000"
 preserveAspectRatio="xMidYMid meet">
<metadata>
Created by potrace 1.16, written by Peter Selinger 2001-2019
</metadata>
<g transform="translate(0.000000,171.000000) scale(0.100000,-0.100000)"
fill="#000000" stroke="none">
<path d="M1910 1642 c20 -27 21 -38 18 -270 l-3 -242 -133 -132 -133 -132 125
-126 c68 -69 129 -135 135 -147 14 -27 15 -414 2 -461 -6 -18 -20 -42 -33 -52
-23 -19 -23 -19 115 -20 l139 0 29 29 29 29 0 737 c0 789 1 778 -49 805 -11 5
-74 10 -141 10 l-121 0 21 -28z"/>
<path d="M260 1653 c-8 -2 -22 -7 -30 -10 -8 -4 -22 -5 -30 -4 -11 2 -9 -2 4
-12 20 -14 15 -37 -8 -37 -16 0 -56 -46 -56 -65 0 -23 -16 -18 -29 11 -10 23
-9 25 7 19 11 -3 24 1 31 8 17 21 -6 36 -49 32 -19 -1 -41 -3 -47 -4 -18 -1
-18 -1468 0 -1492 25 -32 56 -39 178 -39 l122 0 -24 26 -24 26 0 244 0 244
133 133 132 133 -135 135 -135 135 0 243 c0 148 4 250 10 262 9 16 7 19 -12
18 -13 0 -30 -3 -38 -6z"/>
<path d="M1314 515 c-181 -177 -188 -185 -169 -200 11 -9 21 -11 23 -6 2 5 10
7 18 4 8 -3 14 1 14 9 0 7 15 31 34 53 19 22 33 42 30 46 -2 4 7 14 21 23 14
9 25 21 25 27 0 14 55 69 69 69 6 0 11 5 11 10 0 6 10 21 23 33 29 28 101 117
94 117 -2 0 -89 -83 -193 -185z"/>
</g>
</svg>
